<?xml version="1.0" encoding="UTF-8" standalone="no"?>
<!-- Created with Inkscape (http://www.inkscape.org/) -->

<svg
   width="40"
   height="40"
   viewBox="0 0 10.583333 10.583333"
   version="1.1"
   id="svg5"
   inkscape:version="1.2.2 (b0a8486541, 2022-12-01)"
   sodipodi:docname="ios.svg"
   xmlns:inkscape="http://www.inkscape.org/namespaces/inkscape"
   xmlns:sodipodi="http://sodipodi.sourceforge.net/DTD/sodipodi-0.dtd"
   xmlns="http://www.w3.org/2000/svg"
   xmlns:svg="http://www.w3.org/2000/svg">
  <sodipodi:namedview
     id="namedview7"
     pagecolor="#ffffff"
     bordercolor="#999999"
     borderopacity="1"
     inkscape:showpageshadow="0"
     inkscape:pageopacity="0"
     inkscape:pagecheckerboard="0"
     inkscape:deskcolor="#d1d1d1"
     inkscape:document-units="mm"
     showgrid="false"
     inkscape:zoom="9.5144351"
     inkscape:cx="7.1995867"
     inkscape:cy="10.089932"
     inkscape:window-width="1920"
     inkscape:window-height="1134"
     inkscape:window-x="0"
     inkscape:window-y="1080"
     inkscape:window-maximized="1"
     inkscape:current-layer="layer1" />
  <defs
     id="defs2" />
  <g
     inkscape:label="Layer 1"
     inkscape:groupmode="layer"
     id="layer1">
    <path
       id="rect1004"
       style="fill:#ffffff;stroke-width:0.0630367"
       d="m 4.3346192,3.8794532 c -0.9149191,0 -1.4907618,0.6554438 -1.4907618,1.695538 0,1.040095 0.5758427,1.6933335 1.4907618,1.6933335 0.9171941,0 1.4929663,-0.6532385 1.4929663,-1.6933335 0,-1.0400942 -0.578048,-1.695538 -1.4929663,-1.695538 z m 3.0201083,0 c -0.6440855,0 -1.1219985,0.3709476 -1.1219985,0.901237 0,0.4529077 0.2731282,0.7328405 0.926317,0.8784994 l 0.3573252,0.079651 c 0.5052542,0.1160721 0.7101032,0.302737 0.7101032,0.6122622 0,0.373251 -0.3527919,0.635 -0.8466666,0.635 -0.5143576,0 -0.8807365,-0.2525656 -0.9194271,-0.6463 H 6.1485308 c 0.034139,0.5553247 0.5144466,0.9285223 1.2154296,0.9285223 0.7123628,0 1.1811164,-0.3755145 1.1811164,-0.95815 0,-0.4551838 -0.2707643,-0.7123699 -0.9467122,-0.8648568 L 7.2410393,5.3633246 C 6.7539924,5.2540811 6.5513313,5.0651932 6.5513313,4.7670475 c 0,-0.3732502 0.3528398,-0.6053718 0.7966437,-0.6053718 0.4665634,0 0.7920661,0.2503781 0.823929,0.6259046 H 8.4836163 C 8.4654082,4.2595667 7.9942606,3.8794532 7.3547275,3.8794532 Z m -5.1162421,0.077446 c -0.109244,0 -0.200229,0.08871 -0.200229,0.2002289 0,0.1115201 0.090985,0.200229 0.200229,0.200229 0.1115197,0 0.2025716,-0.088709 0.2025716,-0.200229 0,-0.1115193 -0.091052,-0.2002289 -0.2025716,-0.2002289 z m 2.0961338,0.2116665 c 0.7191895,0 1.1743639,0.5438534 1.1743639,1.4064256 0,0.8602968 -0.4551744,1.4042211 -1.1743639,1.4042211 -0.7191906,0 -1.1720215,-0.5439243 -1.1720215,-1.4042211 0,-0.8625722 0.4528309,-1.4064256 1.1720215,-1.4064256 z m -2.24634,0.6804752 V 7.2159594 H 2.3886915 V 4.8490408 Z"
       sodipodi:nodetypes="sssssssccssccssccssccsssssssssssccccc" />
    <rect
       style="fill:none;stroke:#ffffff;stroke-width:0.264583;stroke-dasharray:none"
       id="rect390"
       width="10.31875"
       height="10.31875"
       x="0.13229166"
       y="0.1322915" />
  </g>
</svg>
