<?xml version="1.0" encoding="UTF-8" standalone="no"?>
<!-- Created with Inkscape (http://www.inkscape.org/) -->

<svg
   sodipodi:docname="live.svg"
   inkscape:version="1.2.2 (b0a8486541, 2022-12-01)"
   xml:space="preserve"
   id="svg5"
   version="1.1"
   viewBox="0 0 10.583333 10.583333"
   height="40"
   width="40"
   xmlns:inkscape="http://www.inkscape.org/namespaces/inkscape"
   xmlns:sodipodi="http://sodipodi.sourceforge.net/DTD/sodipodi-0.dtd"
   xmlns="http://www.w3.org/2000/svg"
   xmlns:svg="http://www.w3.org/2000/svg"><sodipodi:namedview
     id="namedview7"
     pagecolor="#ffffff"
     bordercolor="#999999"
     borderopacity="1"
     inkscape:showpageshadow="0"
     inkscape:pageopacity="0"
     inkscape:pagecheckerboard="0"
     inkscape:deskcolor="#d1d1d1"
     inkscape:document-units="mm"
     showgrid="false"
     inkscape:zoom="9.5144352"
     inkscape:cx="-4.1515864"
     inkscape:cy="17.552277"
     inkscape:window-width="1920"
     inkscape:window-height="1134"
     inkscape:window-x="0"
     inkscape:window-y="1080"
     inkscape:window-maximized="1"
     inkscape:current-layer="layer1" /><defs
     id="defs2" /><g
     inkscape:label="Layer 1"
     inkscape:groupmode="layer"
     id="layer1"><path
       id="rect510"
       style="fill:#ffffff;stroke-width:0.062797"
       class="UnoptimicedTransforms"
       d="m 1.7042887,3.4726562 -0.010335,3.7026164 h 1.653129 V 6.604248 H 2.2784139 V 3.4726562 Z m 2.1791952,0.023254 C 3.6786355,3.4960784 3.5126149,3.662099 3.5124471,3.8669474 3.5123296,4.0719976 3.6784337,4.238333 3.8834839,4.238501 4.0887359,4.2386185 4.2551549,4.0721994 4.2550374,3.8669474 4.2548694,3.6618973 4.0885341,3.4957932 3.8834839,3.4959106 Z m 4.1465169,1.296045 c -0.00804,4.24e-5 -0.012402,5.167e-4 -0.012402,5.167e-4 -0.8354601,0 -1.1342977,0.6969211 -1.1342977,1.2789917 0,0.5820658 0.4442153,1.1932089 1.1580688,1.1932089 0.7138564,0 1.0454143,-0.6035808 1.0454143,-0.6035808 L 8.6320312,6.3722209 c 0,0 -0.1639194,0.363802 -0.5901448,0.363802 -0.6073436,0 -0.5426025,-0.6180501 -0.5426025,-0.6180501 l 1.615922,-0.014469 c 0,-1.2782163 -0.9646364,-1.3122678 -1.0852051,-1.3115478 z M 4.3971476,4.8487996 5.6353149,7.3018799 6.8507446,4.8581014 H 6.2270101 L 5.6260132,6.1226237 5.0446533,4.8487996 Z m -0.802535,0.00568 0.00465,2.3228557 H 4.1532349 V 4.854484 Z m 4.4286703,0.3689698 c 0.4419782,0 0.4950602,0.4423502 0.4950602,0.4423502 H 7.4749959 c 0,0 0.1063087,-0.4423502 0.548287,-0.4423502 z"
       sodipodi:nodetypes="ccccccccccccccssccscccccccccccccccsccs" /><rect
       style="fill:none;stroke:#ffffff;stroke-width:0.264583;stroke-dasharray:none;stroke-opacity:1"
       id="rect426"
       width="10.31875"
       height="10.31875"
       x="0.13229166"
       y="0.1322915" /></g></svg>
