<?xml version="1.0" encoding="UTF-8" standalone="no"?>
<!-- Created with Inkscape (http://www.inkscape.org/) -->

<svg
   width="40"
   height="40"
   viewBox="0 0 10.583333 10.583333"
   version="1.1"
   id="svg5"
   inkscape:version="1.2.2 (b0a8486541, 2022-12-01)"
   sodipodi:docname="vst.svg"
   xmlns:inkscape="http://www.inkscape.org/namespaces/inkscape"
   xmlns:sodipodi="http://sodipodi.sourceforge.net/DTD/sodipodi-0.dtd"
   xmlns="http://www.w3.org/2000/svg"
   xmlns:svg="http://www.w3.org/2000/svg">
  <sodipodi:namedview
     id="namedview7"
     pagecolor="#ffffff"
     bordercolor="#999999"
     borderopacity="1"
     inkscape:showpageshadow="0"
     inkscape:pageopacity="0"
     inkscape:pagecheckerboard="0"
     inkscape:deskcolor="#d1d1d1"
     inkscape:document-units="mm"
     showgrid="false"
     inkscape:zoom="4.7572176"
     inkscape:cx="46.981244"
     inkscape:cy="-9.6695178"
     inkscape:window-width="1920"
     inkscape:window-height="1048"
     inkscape:window-x="0"
     inkscape:window-y="0"
     inkscape:window-maximized="1"
     inkscape:current-layer="layer1" />
  <defs
     id="defs2" />
  <g
     inkscape:label="Layer 1"
     inkscape:groupmode="layer"
     id="layer1">
    <rect
       style="fill:none;stroke:#ffffff;stroke-width:0.264583;stroke-dasharray:none"
       id="rect390"
       width="10.31875"
       height="10.31875"
       x="0.13229166"
       y="0.1322915" />
    <path
       style="fill:#ffffff;stroke-width:1"
       d="M 3.9359354,6.6768889 V 6.0888601 H 4.0432625 4.1505896 L 4.2536318,6.2978177 C 4.4358115,6.667259 4.670481,6.8708433 5.0743313,7.0098033 l 0.2173353,0.074779 0.3593509,-6.55e-5 0.3593509,-6.56e-5 0.1253078,-0.043888 C 6.2964397,6.9842524 6.4815701,6.8215104 6.5377108,6.6871461 L 6.5816331,6.582031 6.5470028,6.490626 C 6.4595836,6.2598938 6.380197,6.2163309 5.5159876,5.9248489 4.766824,5.6721686 4.4383897,5.5265006 4.2500127,5.3633603 L 4.1230692,5.2534235 4.1734758,5.1559467 c 0.027724,-0.053612 0.090703,-0.1377721 0.1399541,-0.1870231 l 0.089547,-0.089547 0.1258296,-0.020121 0.1258298,-0.020138 v -0.093831 -0.093829 h -0.081671 c -0.044919,0 -0.081671,0.014134 -0.081671,0.031408 0,0.017275 -0.061451,0.047956 -0.1365564,0.06818 L 4.2181814,4.787817 4.1342272,4.8800335 C 4.0880523,4.9307532 3.773175,5.4807494 3.4344996,6.1022493 L 2.8187259,7.2322472 H 2.7429199 2.6671138 L 2.0699432,6.244035 C 1.7414984,5.7005175 1.4101798,5.157419 1.3336797,5.0371488 L 1.1945887,4.8184752 1.0298552,4.7599679 0.86512191,4.7014606 v -0.05767 -0.057669 H 1.7634981 2.6618745 v 0.061253 0.061254 L 2.5597862,4.729046 c -0.056148,0.011223 -0.1414125,0.020418 -0.1894757,0.020418 -0.099355,0 -0.1657913,0.053092 -0.1657913,0.1324912 0,0.062327 0.7939835,1.4448876 0.8371027,1.4576438 0.025717,0.00757 0.7275027,-1.2626023 0.7751701,-1.403034 L 3.836449,4.878654 3.771853,4.814058 3.707257,4.749463 3.61742,4.7489691 C 3.568008,4.7487229 3.494505,4.7396591 3.454078,4.7288261 L 3.3805743,4.7091752 V 4.647649 4.5861227 H 3.6991502 4.0177263 L 4.1320055,4.4322965 C 4.365078,4.1185643 4.6626708,3.9646361 5.1660167,3.8974595 l 0.2889913,-0.038569 0.3144077,0.020495 c 0.1729241,0.011269 0.4575309,0.049943 0.6324603,0.085937 0.1749279,0.035992 0.3538866,0.065442 0.3976865,0.065442 h 0.079633 l 0.07569,-0.081671 0.07569,-0.081671 h 0.1024263 0.102425 V 4.2104373 4.5534544 H 8.4768195 9.7182114 V 4.9454733 5.3374921 H 9.6409789 9.5637464 L 9.5069676,5.1888126 C 9.475737,5.1070406 9.3976221,4.9890842 9.3333768,4.9266909 L 9.2165663,4.8132462 9.0508701,4.7678684 C 8.9597364,4.7429109 8.8000868,4.7136651 8.6960925,4.7028778 l -0.1890802,-0.019614 0.0094,1.1102824 0.0094,1.1102814 0.072236,0.07219 0.072236,0.072202 0.1972774,0.014264 0.1972787,0.014264 v 0.061408 0.061408 H 8.0848003 7.1047534 v -0.065341 -0.065341 l 0.155174,-4.94e-4 c 0.085346,-2.477e-4 0.1919263,-0.019023 0.2368448,-0.041685 l 0.081671,-0.04121 0.038991,-0.113487 0.038992,-0.1134882 0.00184,-1.041299 0.00184,-1.0413018 -0.1020894,0.020418 c -0.05614,0.011224 -0.1516956,0.020416 -0.2123357,0.020416 H 7.2354254 v 0.098005 0.098005 H 7.129197 7.0229697 L 6.9454577,4.7666781 C 6.7143308,4.3310014 6.1725012,4.0307496 5.6174137,4.0307496 H 5.3851953 l -0.175717,0.052182 -0.1757182,0.052182 -0.1078923,0.1078911 -0.107891,0.1078922 v 0.1295342 0.1295341 l 0.068423,0.086988 c 0.1010609,0.1284773 1.3004887,0.6078563 1.5208847,0.6078563 h 0.044102 V 4.9269552 4.5491009 l 0.087875,0.010331 0.087874,0.010331 0.109843,0.1532947 0.109842,0.1532936 -0.082668,0.1249201 c -0.045466,0.068706 -0.092141,0.1722845 -0.1037193,0.2301748 l -0.02105,0.1052541 -0.085831,-0.020169 -0.085832,-0.020169 0.032669,0.031487 c 0.017968,0.017317 0.1015242,0.056811 0.1856803,0.087764 0.084158,0.030952 0.2414551,0.1134409 0.3495499,0.1833067 l 0.1965378,0.1270277 0.091471,0.138223 0.091472,0.1382219 V 6.2497914 6.4971895 L 7.3082745,6.6510351 C 7.2495197,6.7356472 7.1181301,6.8645409 7.016299,6.9374614 L 6.83115,7.0700433 6.62581,7.1334623 C 6.5128722,7.1683429 6.2914453,7.2141527 6.1337476,7.2352549 L 5.8470256,7.2736163 5.438673,7.2536105 5.0303203,7.2336047 4.737961,7.1675743 C 4.3627274,7.0828334 4.3094523,7.0844135 4.2106443,7.1832218 l -0.081671,0.081673 h -0.096519 -0.096519 z"
       id="path312"
       sodipodi:nodetypes="ccccsscccsscssscsscccccssscsscccssccccccccccssssccccccccccssccsscccccccccccccccccscccccccccccccccccccccscccccssccccccccsccccccccccccsccccccccccsccccsscccc" />
  </g>
</svg>
