<?xml version="1.0" encoding="UTF-8" standalone="no"?>
<!-- Created with Inkscape (http://www.inkscape.org/) -->

<svg
   width="50mm"
   height="13mm"
   viewBox="0 0 50 13"
   version="1.1"
   id="svg844"
   inkscape:version="1.1.2 (b8e25be833, 2022-02-05)"
   sodipodi:docname="trnr-logo.svg"
   xmlns:inkscape="http://www.inkscape.org/namespaces/inkscape"
   xmlns:sodipodi="http://sodipodi.sourceforge.net/DTD/sodipodi-0.dtd"
   xmlns="http://www.w3.org/2000/svg"
   xmlns:svg="http://www.w3.org/2000/svg">
  <sodipodi:namedview
     id="namedview846"
     pagecolor="#505050"
     bordercolor="#eeeeee"
     borderopacity="1"
     inkscape:pageshadow="0"
     inkscape:pageopacity="0"
     inkscape:pagecheckerboard="0"
     inkscape:document-units="mm"
     showgrid="false"
     inkscape:zoom="2.5620932"
     inkscape:cx="135.63129"
     inkscape:cy="57.960421"
     inkscape:window-width="2400"
     inkscape:window-height="1321"
     inkscape:window-x="-9"
     inkscape:window-y="-1359"
     inkscape:window-maximized="1"
     inkscape:current-layer="layer1" />
  <defs
     id="defs841" />
  <g
     inkscape:label="Layer 1"
     inkscape:groupmode="layer"
     id="layer1">
    <g
       id="g3338"
       transform="matrix(1.0602244,0,0,1.0602244,-82.198779,-135.58802)"
       style="fill:#ffffff">
      <g
         aria-label="music technology"
         id="text162822-2-4"
         style="font-size:14.6142px;line-height:1.25;font-family:'FORCED SQUARE';-inkscape-font-specification:'FORCED SQUARE';stroke-width:0.365357">
        <path
           d="m 90.880098,137.25409 v 2.0265 h -0.521241 v -1.52475 h -0.501755 v 1.52475 h -0.501755 v -1.52475 h -0.521241 v 1.52475 h -0.501755 v -2.0265 z"
           style="font-size:4.87141px;text-align:end;text-anchor:end"
           id="path1406" />
        <path
           d="m 93.43272,139.28059 h -2.026507 v -2.0265 h 0.501755 v 1.52475 h 1.022996 v -1.52475 h 0.501756 z"
           style="font-size:4.87141px;text-align:end;text-anchor:end"
           id="path1408" />
        <path
           d="m 94.465458,138.06274 h 1.524751 v 1.21785 h -2.045992 v -0.45791 h 1.524751 v -0.35074 h -1.524751 v -1.21785 h 2.045992 v 0.47252 h -1.524751 z"
           style="font-size:4.87141px;text-align:end;text-anchor:end"
           id="path1410" />
        <path
           d="m 96.993724,136.60132 v 0.39458 h -0.501756 v -0.39458 z m -0.501756,0.682 h 0.501756 v 1.99727 h -0.501756 z"
           style="font-size:4.87141px;text-align:end;text-anchor:end"
           id="path1412" />
        <path
           d="m 98.0362,137.75097 v 1.00351 h 1.524752 v 0.52124 H 97.51496 v -2.04112 h 2.045992 v 0.51637 z"
           style="font-size:4.87141px;text-align:end;text-anchor:end"
           id="path1414" />
        <path
           d="m 102.2451,137.75584 v 1.023 h 1.02299 v 0.50175 h -1.52475 v -2.68901 h 0.50176 v 0.66251 h 1.02299 v 0.50175 z"
           style="font-size:4.87141px;text-align:end;text-anchor:end"
           id="path1416" />
        <path
           d="m 103.78447,137.24922 h 2.04599 v 1.21785 h -1.52475 v 0.33125 h 1.52475 v 0.4774 h -2.04599 z m 0.52124,0.80378 h 1.00351 v -0.35074 h -1.00351 z"
           style="font-size:4.87141px;text-align:end;text-anchor:end"
           id="path1418" />
        <path
           d="m 106.85346,137.75097 v 1.00351 h 1.52475 v 0.52124 h -2.04599 v -2.04112 h 2.04599 v 0.51637 z"
           style="font-size:4.87141px;text-align:end;text-anchor:end"
           id="path1420" />
        <path
           d="m 110.91621,137.25409 v 2.0265 h -0.50175 v -1.52475 h -1.023 v 1.52475 h -0.50175 v -2.75234 h 0.50175 v 0.72584 z"
           style="font-size:4.87141px;text-align:end;text-anchor:end"
           id="path1422" />
        <path
           d="m 113.46396,137.25409 v 2.0265 h -0.50175 v -1.52475 h -1.023 v 1.52475 h -0.50175 v -2.0265 z"
           style="font-size:4.87141px;text-align:end;text-anchor:end"
           id="path1424" />
        <path
           d="m 116.0312,137.25409 v 2.0265 h -2.04599 v -2.0265 z m -0.52124,0.50175 h -1.00351 v 1.023 h 1.00351 z"
           style="font-size:4.87141px;text-align:end;text-anchor:end"
           id="path1426" />
        <path
           d="m 117.0542,139.28059 h -0.50176 v -2.67927 h 0.50176 z"
           style="font-size:4.87141px;text-align:end;text-anchor:end"
           id="path1428" />
        <path
           d="m 119.59221,137.25409 v 2.0265 h -2.046 v -2.0265 z m -0.52124,0.50175 h -1.00351 v 1.023 h 1.00351 z"
           style="font-size:4.87141px;text-align:end;text-anchor:end"
           id="path1430" />
        <path
           d="m 122.13995,140.1136 h -2.0265 v -0.50175 h 1.52475 v -0.33126 h -1.52475 v -2.0265 h 2.0265 z m -0.50175,-1.33476 v -1.023 h -1.023 v 1.023 z"
           style="font-size:4.87141px;text-align:end;text-anchor:end"
           id="path1432" />
        <path
           d="m 124.68771,139.28059 -0.84763,0.83789 h -0.39458 v -0.32639 l 0.53098,-0.5115 h -1.31528 v -2.0265 h 0.50176 v 1.52475 h 1.02299 v -1.52475 h 0.50176 z"
           style="font-size:4.87141px;text-align:end;text-anchor:end"
           id="path1434" />
      </g>
      <g
         aria-label="&gt;&gt;TERNÄR"
         id="text162826-8-65"
         style="font-size:10.5833px;line-height:1.25;font-family:'FORCED SQUARE';-inkscape-font-specification:'FORCED SQUARE';stroke-width:0.264583">
        <path
           d="m 80.768099,133.08256 -2.222493,1.67216 h -1.015997 v -0.53975 l 2.222493,-1.68274 -2.222493,-1.62983 v -0.58208 h 1.015997 l 2.222493,1.67216 z"
           style="text-align:end;text-anchor:end"
           id="path1234" />
        <path
           d="m 85.075498,133.08256 -2.222493,1.67216 h -1.015997 v -0.53975 l 2.222493,-1.68274 -2.222493,-1.62983 v -0.58208 h 1.015997 l 2.222493,1.67216 z"
           style="text-align:end;text-anchor:end"
           id="path1236" />
        <path
           d="m 91.647723,130.36265 h -2.18016 v 4.40265 H 88.33515 v -4.40265 h -2.18016 v -1.13241 h 5.492733 z"
           style="text-align:end;text-anchor:end"
           id="path1238" />
        <path
           d="m 93.679697,130.32032 v 1.13241 h 4.402653 v 1.09008 h -4.402653 v 1.09008 h 4.402653 v 1.13241 h -5.535066 v -5.53506 h 5.535066 v 1.09008 z"
           style="text-align:end;text-anchor:end"
           id="path1240" />
        <path
           d="m 104.8345,129.23024 v 3.3549 h -1.44991 l 1.44991,1.397 v 0.78316 h -0.8255 l -2.18016,-2.18016 h -1.43932 v 2.18016 h -1.090085 v -5.53506 z m -1.13241,1.13241 h -3.31257 v 1.09008 h 3.31257 z"
           style="text-align:end;text-anchor:end"
           id="path1242" />
        <path
           d="m 111.44906,129.23024 v 5.53506 h -1.09008 l -3.31257,-3.7994 v 3.7994 h -1.09008 v -5.53506 h 1.09008 l 3.31257,3.7994 v -3.7994 z"
           style="text-align:end;text-anchor:end"
           id="path1244" />
        <path
           d="m 112.5709,129.23024 h 5.49273 v 5.52448 h -1.09008 v -2.22249 h -3.31257 v 2.22249 h -1.09008 z m 1.09008,2.21191 h 3.31257 v -1.09008 h -3.31257 z m 0.381,-3.55599 h 0.84666 v 0.84666 h -0.84666 z m 2.57174,0 v 0.84666 h -0.87842 v -0.84666 z"
           style="text-align:end;text-anchor:end"
           id="path1246" />
        <path
           d="m 124.63586,129.23024 v 3.3549 h -1.44991 l 1.44991,1.397 v 0.78316 h -0.8255 l -2.18016,-2.18016 h -1.43933 v 2.18016 h -1.09008 v -5.53506 z m -1.13241,1.13241 h -3.31258 v 1.09008 h 3.31258 z"
           style="text-align:end;text-anchor:end"
           id="path1248" />
      </g>
    </g>
  </g>
</svg>
